<?xml version="1.0" encoding="UTF-8"?><mxfile host="app.diagrams.net" version="16.5.6"><diagram id="diagram-0" name="SIM_{yao}"><mxGraphModel><root><mxCell id="0"/><mxCell id="1" parent="0"/><mxCell value="SIM_{yao}" id="2" parent="1"  vertex="1"><mxGeometry x="150" y="75" width="80" height="50" />
</mxCell><mxCell value="EV_[1...d]" id="3" parent="1"  vertex="1"><mxGeometry x="330" y="75" width="80" height="50" />
</mxCell><mxCell value="BITS_[1]" id="4" parent="1"  vertex="1"><mxGeometry x="510" y="20" width="80" height="50" />
</mxCell><mxCell value="KEYS_[d+1]" id="5" parent="1"  vertex="1"><mxGeometry x="510" y="130" width="80" height="50" />
</mxCell><mxCell value="Adv_pkg" id="6" parent="1"  vertex="1"><mxGeometry width="50" height="200" />
</mxCell><mxCell id="7" style="noEdgeStyle=1;orthogonal=1;" edge="1" parent="1" source="6" target="4"><mxGeometry width="50" relative="1">
  <Array as="points">
    <mxPoint x="100" y="15" />
    <mxPoint x="280" y="15" />
    <mxPoint x="280" y="15" />
    <mxPoint x="460" y="15" />
  </Array>
</mxGeometry>
</mxCell><mxCell id="8" value="SETBIT_[1]" style="edgeLabel;html=1;align=center;verticalAlign=middle;resizable=0;points=[];" vertex="1" connectable="0" parent="7"><mxGeometry x="-0.205" y="-5" relative="1" as="geometry"><mxPoint as="offset" /></mxGeometry></mxCell><mxCell id="9" style="noEdgeStyle=1;orthogonal=1;" edge="1" parent="1" source="6" target="5"><mxGeometry width="50" relative="1">
  <Array as="points">
    <mxPoint x="100" y="185" />
    <mxPoint x="280" y="185" />
    <mxPoint x="280" y="185" />
    <mxPoint x="460" y="185" />
  </Array>
</mxGeometry>
</mxCell><mxCell id="10" value="GETKEYS" style="edgeLabel;html=1;align=center;verticalAlign=middle;resizable=0;points=[];" vertex="1" connectable="0" parent="9"><mxGeometry x="-0.205" y="-5" relative="1" as="geometry"><mxPoint as="offset" /></mxGeometry></mxCell><mxCell id="11" style="noEdgeStyle=1;orthogonal=1;" edge="1" parent="1" source="6" target="2"><mxGeometry width="50" relative="1">
  <Array as="points"></Array>
</mxGeometry>
</mxCell><mxCell id="12" value="GBL_[1...d]" style="edgeLabel;html=1;align=center;verticalAlign=middle;resizable=0;points=[];" vertex="1" connectable="0" parent="11"><mxGeometry x="-0.205" y="-5" relative="1" as="geometry"><mxPoint as="offset" /></mxGeometry></mxCell><mxCell id="13" style="noEdgeStyle=1;orthogonal=1;" edge="1" parent="1" source="6" target="2"><mxGeometry width="50" relative="1">
  <Array as="points"></Array>
</mxGeometry>
</mxCell><mxCell id="14" value="GETA^{out}" style="edgeLabel;html=1;align=center;verticalAlign=middle;resizable=0;points=[];" vertex="1" connectable="0" parent="13"><mxGeometry x="-0.205" y="-5" relative="1" as="geometry"><mxPoint as="offset" /></mxGeometry></mxCell><mxCell id="15" style="noEdgeStyle=1;orthogonal=1;" edge="1" parent="1" source="2" target="3"><mxGeometry width="50" relative="1">
  <Array as="points" />
</mxGeometry>
</mxCell><mxCell id="16" value="EVAL_[1...d]" style="edgeLabel;html=1;align=center;verticalAlign=middle;resizable=0;points=[];" vertex="1" connectable="0" parent="15"><mxGeometry x="-0.205" y="-5" relative="1" as="geometry"><mxPoint as="offset" /></mxGeometry></mxCell><mxCell id="17" style="noEdgeStyle=1;orthogonal=1;" edge="1" parent="1" source="2" target="3"><mxGeometry width="50" relative="1">
  <Array as="points"></Array>
</mxGeometry>
</mxCell><mxCell id="18" value="CHECK_[2...d]" style="edgeLabel;html=1;align=center;verticalAlign=middle;resizable=0;points=[];" vertex="1" connectable="0" parent="17"><mxGeometry x="-0.205" y="-5" relative="1" as="geometry"><mxPoint as="offset" /></mxGeometry></mxCell><mxCell id="19" style="noEdgeStyle=1;orthogonal=1;" edge="1" parent="1" source="2" target="4"><mxGeometry width="50" relative="1">
  <Array as="points">
    <mxPoint x="280" y="45" />
    <mxPoint x="460" y="45" />
  </Array>
</mxGeometry>
</mxCell><mxCell id="20" value="CHECK_[1]" style="edgeLabel;html=1;align=center;verticalAlign=middle;resizable=0;points=[];" vertex="1" connectable="0" parent="19"><mxGeometry x="-0.205" y="-5" relative="1" as="geometry"><mxPoint as="offset" /></mxGeometry></mxCell><mxCell id="21" style="noEdgeStyle=1;orthogonal=1;" edge="1" parent="1" source="2" target="5"><mxGeometry width="50" relative="1">
  <Array as="points">
    <mxPoint x="280" y="155" />
    <mxPoint x="460" y="155" />
  </Array>
</mxGeometry>
</mxCell><mxCell id="22" value="GETA^{out}" style="edgeLabel;html=1;align=center;verticalAlign=middle;resizable=0;points=[];" vertex="1" connectable="0" parent="21"><mxGeometry x="-0.205" y="-5" relative="1" as="geometry"><mxPoint as="offset" /></mxGeometry></mxCell><mxCell id="23" style="noEdgeStyle=1;orthogonal=1;" edge="1" parent="1" source="3" target="4"><mxGeometry width="50" relative="1">
  <Array as="points"></Array>
</mxGeometry>
</mxCell><mxCell id="24" value="GETBIT_[1]" style="edgeLabel;html=1;align=center;verticalAlign=middle;resizable=0;points=[];" vertex="1" connectable="0" parent="23"><mxGeometry x="-0.205" y="-5" relative="1" as="geometry"><mxPoint as="offset" /></mxGeometry></mxCell><mxCell id="25" style="noEdgeStyle=1;orthogonal=1;" edge="1" parent="1" source="3" target="5"><mxGeometry width="50" relative="1">
  <Array as="points"></Array>
</mxGeometry>
</mxCell><mxCell id="26" value="SETBIT_[d+1]" style="edgeLabel;html=1;align=center;verticalAlign=middle;resizable=0;points=[];" vertex="1" connectable="0" parent="25"><mxGeometry x="-0.205" y="-5" relative="1" as="geometry"><mxPoint as="offset" /></mxGeometry></mxCell></root></mxGraphModel></diagram></mxfile>